<?xml version="1.0" encoding="UTF-8" standalone="yes"?>
<svg xmlns="http://www.w3.org/2000/svg" xmlns:xlink="http://www.w3.org/1999/xlink" width="60px" height="60px" viewBox="0 0 60 60" version="1.1" fill="#000000">
  <g id="surface154965">
    <path style=" stroke:none;fill-rule:nonzero;fill:#000000;fill-opacity:1;" d="M 8 6 C 5.789062 6 4 7.789062 4 10 L 4 46 C 4 48.210938 5.789062 50 8 50 L 52 50 C 54.210938 50 56 48.210938 56 46 L 56 14 C 56 11.789062 54.210938 10 52 10 L 22.398438 10 L 21.164062 7.941406 C 20.441406 6.738281 19.140625 6 17.734375 6 Z M 30 18 C 31.105469 18 32 18.894531 32 20 L 32 35.171875 L 36.585938 30.585938 C 37.367188 29.804688 38.632812 29.804688 39.414062 30.585938 C 40.195312 31.367188 40.195312 32.632812 39.414062 33.414062 L 31.414062 41.414062 C 31.023438 41.804688 30.511719 42 30 42 C 29.488281 42 28.976562 41.804688 28.585938 41.414062 L 20.585938 33.414062 C 19.804688 32.632812 19.804688 31.367188 20.585938 30.585938 C 21.367188 29.804688 22.632812 29.804688 23.414062 30.585938 L 28 35.171875 L 28 20 C 28 18.894531 28.894531 18 30 18 Z M 30 18 "/>
  </g>
</svg>
