<?xml version="1.0" encoding="UTF-8" standalone="yes"?>
<svg xmlns="http://www.w3.org/2000/svg" xmlns:xlink="http://www.w3.org/1999/xlink" width="90px" height="90px" viewBox="0 0 90 90" version="1.1" fill="#000000">
  <g id="surface155031">
    <path style=" stroke:none;fill-rule:nonzero;fill:#000000;fill-opacity:1;" d="M 12 9 C 8.683594 9 6 11.683594 6 15 L 6 69 C 6 72.316406 8.683594 75 12 75 L 78 75 C 81.316406 75 84 72.316406 84 69 L 84 21 C 84 17.683594 81.316406 15 78 15 L 33.597656 15 L 31.746094 11.910156 C 30.664062 10.105469 28.710938 9 26.601562 9 Z M 45 27 C 46.660156 27 48 28.34375 48 30 L 48 52.757812 L 54.878906 45.878906 C 56.050781 44.707031 57.949219 44.707031 59.121094 45.878906 C 60.292969 47.050781 60.292969 48.949219 59.121094 50.121094 L 47.121094 62.121094 C 46.535156 62.707031 45.769531 63 45 63 C 44.230469 63 43.464844 62.707031 42.878906 62.121094 L 30.878906 50.121094 C 29.707031 48.949219 29.707031 47.050781 30.878906 45.878906 C 32.050781 44.707031 33.949219 44.707031 35.121094 45.878906 L 42 52.757812 L 42 30 C 42 28.34375 43.339844 27 45 27 Z M 45 27 "/>
  </g>
</svg>
